<?xml version="1.0" standalone="no"?>
<!DOCTYPE svg PUBLIC "-//W3C//DTD SVG 20010904//EN"
 "http://www.w3.org/TR/2001/REC-SVG-20010904/DTD/svg10.dtd">
<svg version="1.0" xmlns="http://www.w3.org/2000/svg"
 width="63.000000pt" height="39.000000pt" viewBox="0 0 63.000000 39.000000"
 preserveAspectRatio="xMidYMid meet">

<g transform="translate(0.000000,39.000000) scale(0.100000,-0.100000)"
fill="#000000" stroke="none">
<path d="M166 341 c-49 -29 -145 -118 -145 -136 -1 -13 75 -95 87 -95 5 0 15
-7 22 -15 36 -44 176 -69 263 -46 47 11 65 24 151 103 l51 47 -59 59 c-84 86
-141 112 -241 111 -68 0 -87 -5 -129 -28z m69 -131 c0 -66 -3 -120 -7 -120
-32 0 -148 92 -148 117 0 21 81 94 112 100 16 3 31 10 34 14 3 5 6 9 7 9 1 0
2 -54 2 -120z"/>
</g>
</svg>
